<?xml version="1.0" encoding="UTF-8" standalone="no"?>
<svg
   xmlns:dc="http://purl.org/dc/elements/1.1/"
   xmlns:cc="http://creativecommons.org/ns#"
   xmlns:rdf="http://www.w3.org/1999/02/22-rdf-syntax-ns#"
   xmlns:svg="http://www.w3.org/2000/svg"
   xmlns="http://www.w3.org/2000/svg"
   xmlns:sodipodi="http://sodipodi.sourceforge.net/DTD/sodipodi-0.dtd"
   xmlns:inkscape="http://www.inkscape.org/namespaces/inkscape"
   enable-background="new 0 0 512 512"
   id="Layer_1"
   version="1.1"
   viewBox="0 0 512 512"
   xml:space="preserve"
   sodipodi:docname="iconfinder_jquery_2333384.svg"
   inkscape:version="1.0.1 (3bc2e813f5, 2020-09-07)"><metadata
     id="metadata17"><rdf:RDF><cc:Work
         rdf:about=""><dc:format>image/svg+xml</dc:format><dc:type
           rdf:resource="http://purl.org/dc/dcmitype/StillImage" /><dc:title></dc:title></cc:Work></rdf:RDF></metadata><defs
     id="defs15" /><sodipodi:namedview
     pagecolor="#ffffff"
     bordercolor="#666666"
     borderopacity="1"
     objecttolerance="10"
     gridtolerance="10"
     guidetolerance="10"
     inkscape:pageopacity="0"
     inkscape:pageshadow="2"
     inkscape:window-width="1920"
     inkscape:window-height="1001"
     id="namedview13"
     showgrid="false"
     inkscape:zoom="1.6210938"
     inkscape:cx="204.8"
     inkscape:cy="256"
     inkscape:window-x="-9"
     inkscape:window-y="-9"
     inkscape:window-maximized="1"
     inkscape:current-layer="Layer_1" /><path
     style="fill:#000000;stroke-width:0.616867"
     d="M 244.27952,511.28754 C 216.66181,510.25389 189.51447,504.42813 162.23614,493.6812 92.140612,466.06545 37.412659,408.4047 13.604387,337.08446 3.5526881,306.97352 -0.48579843,278.04304 0.71406425,244.74217 2.6207432,191.82438 22.640358,138.47131 56.345209,96.482964 100.37856,41.627728 163.76315,7.6657362 234.1012,1.239832 c 9.53004,-0.87063941 34.26756,-0.87063941 43.7976,0 70.3687,6.4287048 133.71733,40.38299 177.80141,95.299927 33.64257,41.909631 53.688,95.370621 55.58572,148.246631 1.5929,44.38259 -6.58978,83.92109 -25.45219,122.98435 -28.10749,58.20944 -79.25159,104.7859 -140.07952,127.56913 -32.64673,12.22791 -65.00148,17.31274 -101.4747,15.94767 z m 49.11376,-102.01481 c 23.9537,-3.12822 43.74513,-10.23576 62.23082,-22.34847 16.96693,-11.11755 32.83777,-27.27914 43.13395,-43.92415 3.92875,-6.35129 9.75698,-17.77308 9.48519,-18.58846 -0.10411,-0.31233 -1.40732,0.95857 -2.89602,2.82422 -3.95817,4.96038 -13.28157,13.79339 -19.15884,18.15111 -22.93987,17.00888 -50.88332,25.50742 -83.92332,25.52391 -29.45672,0.0147 -53.42088,-5.63279 -79.18226,-18.66038 -38.70306,-19.57223 -69.88258,-51.99131 -85.44146,-88.83821 -8.68524,-20.56858 -12.54596,-39.00529 -12.532,-59.84603 0.0127,-18.9512 3.47911,-35.55027 10.6781,-51.13244 1.32945,-2.8776 2.34187,-5.45473 2.24981,-5.72696 -0.23049,-0.68164 -20.37341,25.03124 -24.43731,31.19477 -4.50388,6.83082 -8.92559,16.1674 -11.79476,24.905 -14.422047,43.92003 -2.650834,97.27767 30.78715,139.55481 6.98789,8.83511 23.39828,24.98644 32.60109,32.08643 18.04688,13.92323 39.65052,24.94 60.88851,31.05007 16.36779,4.70893 47.00296,6.42693 67.31135,3.77478 z m 30.46214,-99.01766 c 34.23647,-2.42648 60.05891,-16.03634 79.53188,-41.91772 4.06133,-5.39788 11.73447,-19.57869 12.68376,-23.44096 0.32552,-1.32443 0.0914,-1.19748 -1.65806,0.89914 -5.58447,6.6926 -8.80295,10.11565 -12.58989,13.39016 -23.59255,20.40009 -55.39248,27.75306 -89.9966,20.80955 -38.02384,-7.6297 -73.86551,-35.41949 -91.01551,-70.56873 -12.51449,-25.64868 -14.80958,-51.92814 -6.68032,-76.49157 1.3474,-4.07133 3.55542,-9.45246 4.90671,-11.95808 1.35129,-2.50562 2.34345,-4.66911 2.20481,-4.80776 -0.54355,-0.54354 -19.73991,27.17431 -22.57584,32.59751 -3.67076,7.01965 -6.36564,14.57117 -8.1775,22.91476 -1.15842,5.33449 -1.3689,8.24384 -1.39189,19.23911 -0.0233,11.14135 0.17113,13.93263 1.38938,19.94567 7.5478,37.25459 34.05301,70.34378 70.75702,88.33326 14.3705,7.04332 25.64596,9.99508 42.25543,11.06189 10.55992,0.67826 10.69938,0.67821 20.35662,-0.006 z m 35.79776,-87.84267 c 19.21063,-2.89597 33.28911,-12.71066 44.42012,-30.96712 2.01028,-3.29715 3.51461,-6.13528 3.34296,-6.30694 -0.17166,-0.17165 -0.78374,0.36513 -1.36017,1.19285 -3.61787,5.19503 -9.93443,10.45062 -16.51857,13.74401 -15.85204,7.92919 -41.19296,6.81863 -61.81557,-2.70905 -10.66921,-4.92918 -20.80602,-12.67568 -28.17901,-21.53425 -18.20788,-21.87657 -23.5241,-48.36907 -13.94538,-69.49448 1.03048,-2.27267 1.75899,-4.24674 1.61891,-4.38681 -0.54336,-0.54337 -11.01358,14.5892 -13.32865,19.26385 -1.34417,2.71421 -3.19226,7.43325 -4.10685,10.48674 -1.51561,5.06014 -1.66537,6.48054 -1.69102,16.03856 -0.0244,9.07566 0.16309,11.19229 1.39295,15.73012 3.86186,14.24919 10.35789,25.24467 21.31971,36.08675 13.48899,13.34164 30.05513,21.41422 47.85763,23.32073 5.34758,0.57269 15.61868,0.3452 20.99294,-0.46496 z"
     id="path842" /></svg>
