<?xml version="1.0" encoding="UTF-8" standalone="no"?>
<svg
   xmlns:dc="http://purl.org/dc/elements/1.1/"
   xmlns:cc="http://creativecommons.org/ns#"
   xmlns:rdf="http://www.w3.org/1999/02/22-rdf-syntax-ns#"
   xmlns:svg="http://www.w3.org/2000/svg"
   xmlns="http://www.w3.org/2000/svg"
   xmlns:sodipodi="http://sodipodi.sourceforge.net/DTD/sodipodi-0.dtd"
   xmlns:inkscape="http://www.inkscape.org/namespaces/inkscape"
   width="2419"
   height="2500"
   viewBox="-0.002 -0.003 500.002 516.812"
   version="1.1"
   id="svg8"
   sodipodi:docname="visual-226058-black.svg"
   inkscape:version="1.0.1 (3bc2e813f5, 2020-09-07)">
  <defs
     id="defs12" />
  <sodipodi:namedview
     pagecolor="#ffffff"
     bordercolor="#666666"
     borderopacity="1"
     objecttolerance="10"
     gridtolerance="10"
     guidetolerance="10"
     inkscape:pageopacity="0"
     inkscape:pageshadow="2"
     inkscape:window-width="1920"
     inkscape:window-height="1001"
     id="namedview10"
     showgrid="false"
     inkscape:zoom="0.332"
     inkscape:cx="880.9352"
     inkscape:cy="982.67485"
     inkscape:window-x="-9"
     inkscape:window-y="-9"
     inkscape:window-maximized="1"
     inkscape:current-layer="svg8"
     inkscape:document-rotation="0" />
  <metadata
     id="metadata6">
    <rdf:RDF>
      <rdf:Description
         about="https://iconscout.com/legal#licenses"
         dc:title="visual-studio-2013"
         dc:description="visual-studio-2013"
         dc:publisher="Iconscout"
         dc:date="2017-06-17"
         dc:format="image/svg+xml"
         dc:language="en">
        <dc:creator>
          <rdf:Bag>
            <rdf:li>Icon Mafia</rdf:li>
          </rdf:Bag>
        </dc:creator>
      </rdf:Description>
      <cc:Work
         rdf:about="">
        <dc:format>image/svg+xml</dc:format>
        <dc:type
           rdf:resource="http://purl.org/dc/dcmitype/StillImage" />
        <dc:title />
      </cc:Work>
    </rdf:RDF>
  </metadata>
  <path
     style="fill:#000000;stroke-width:3.01205"
     d="m 1343.6484,1847.1327 c -261.1387,-253.4639 -476.15601,-460.8434 -477.81628,-460.8434 -1.66027,0 -132.77078,98.7815 -291.35668,219.5145 l -288.33803,219.5144 -61.03484,-30.4743 -61.03484,-30.4743 V 1250.7471 737.12467 l 61.76259,-30.83768 61.7626,-30.83765 287.89749,219.12479 c 158.34358,120.51867 289.73111,219.12477 291.97226,219.12477 2.24114,0 196.85913,-187.72586 432.48433,-417.16863 235.6252,-229.44277 449.0159,-437.14196 474.2014,-461.55375 l 45.7919,-44.38507 216.4914,87.01374 216.4914,87.01373 2.0245,11.58821 c 1.1135,6.37351 2.1358,404.66049 2.2719,885.08217 l 0.2473,873.494 -217.6333,86.7259 c -119.6984,47.6994 -218.4781,86.6677 -219.5105,86.5964 -1.0324,-0.071 -215.536,-207.5091 -476.6746,-460.9729 z m 404.7567,-596.6366 c 0,-318.29923 -0.7851,-403.60372 -3.7057,-402.63023 -8.1797,2.7266 -535.1888,398.57583 -534.366,401.37523 0.9612,3.2701 532.1002,404.6987 535.8126,404.9609 1.2425,0.088 2.2591,-181.5799 2.2591,-403.7059 z M 485.12583,1371.8685 c 72.74033,-65.9134 132.25515,-121.2141 132.25515,-122.8904 0,-2.2193 -210.93435,-192.6386 -264.30723,-238.6013 -5.01403,-4.3179 -5.27108,7.308 -5.27108,238.3975 0,133.6152 1.14029,242.9367 2.534,242.9367 1.39369,0 62.04882,-53.9291 134.78916,-119.8425 z"
     id="path14"
     transform="matrix(0.2067248,0,0,0.2067248,-0.0346456,-0.003)" />
</svg>
